# Blender v2.80 (sub 75) OBJ File: 'helper-cube.blend'
# www.blender.org
mtllib helper-cube.mtl
o Cube
v -1.000000 -1.000000 1.000000
v 1.000000 -1.000000 1.000000
v -1.000000 -1.000000 -1.000000
v 1.000000 -1.000000 -1.000000
v -1.000000 1.000000 1.000000
v 1.000000 1.000000 1.000000
v -1.000000 1.000000 -1.000000
v 1.000000 1.000000 -1.000000
v -2.413369 -1.000000 -1.000000
v -2.413369 1.000000 -1.000000
v -2.413369 -1.000000 1.000000
v -2.413369 1.000000 1.000000
v 1.000000 1.000000 -3.004010
v -1.000000 1.000000 -3.004010
v -1.000000 -1.000000 -3.004010
v 1.000000 -1.000000 -3.004010
v -1.000000 -2.935748 1.000000
v 1.000000 -2.935748 1.000000
v -1.000000 -2.935748 -1.000000
v 1.000000 -2.935748 -1.000000
vt 0.245995 0.739057
vt 0.194612 0.702864
vt 0.228207 0.673344
vt 0.432156 0.442442
vt 0.495113 0.497350
vt 0.435410 0.484259
vt 0.747832 0.498220
vt 0.499600 0.746809
vt 0.500740 0.498783
vt 0.498711 0.498555
vt 0.248545 0.247699
vt 0.494135 0.246814
vt 0.998369 0.568702
vt 0.942981 0.514603
vt 0.992753 0.506970
vt 0.996905 0.500643
vt 0.751911 0.749516
vt 0.752254 0.498233
vt 0.672703 0.569345
vt 0.743613 0.512808
vt 0.737523 0.563977
vt 0.760087 0.741046
vt 0.831673 0.689647
vt 0.758274 0.687044
vt 0.751905 0.746040
vt 0.249908 0.498991
vt 0.302520 0.507020
vt 0.262557 0.559443
vt 0.256020 0.513514
vt 0.997433 0.750607
vt 0.247925 0.753917
vt 0.498867 1.004300
vt 0.254044 1.001703
vt 0.495891 0.752830
vt 0.986019 0.692875
vt 0.943174 0.745725
vt 0.985203 0.749033
vt 0.450842 0.541830
vt 0.491597 0.512277
vt 0.489289 0.548978
vt 0.500546 0.501033
vt 0.248426 0.749538
vt 0.250890 0.499443
vt 0.499444 0.750831
vt 0.489289 0.991531
vt 0.449069 0.947168
vt 0.493906 0.942937
vt 0.172330 0.562473
vt 0.243781 0.506312
vt 0.239431 0.562172
vt 0.248984 0.499269
vt -0.000578 0.747573
vt -0.002150 0.498375
vt 0.250623 0.749344
vt 0.255384 0.261464
vt 0.316859 0.312335
vt 0.262124 0.314012
vt 0.703745 0.744783
vt 0.735664 0.702233
vt 0.706088 0.697731
vt 0.181539 0.750972
vt 0.484204 0.433297
vt 0.941285 0.555479
vt 0.693174 0.505491
vt 0.821215 0.745672
vt 0.303797 0.559507
vt 0.947525 0.701587
vt 0.452931 0.512267
vt 0.451338 0.987106
vt 0.174250 0.504208
vt 0.313246 0.255838
vt 0.734878 0.742202
vn 0.0000 1.0000 0.0000
vn -1.0000 0.0000 0.0000
vn 0.0000 -1.0000 0.0000
vn 0.0000 0.0000 -1.0000
vn 0.0000 0.0000 1.0000
vn 1.0000 0.0000 0.0000
usemtl Material.001
s off
f 3/1/1 11/2/1 1/3/1
f 8/4/2 16/5/2 4/6/2
f 6/7/3 7/8/3 8/9/3
f 8/10/2 2/11/2 6/12/2
f 2/13/4 17/14/4 1/15/4
f 2/16/4 5/17/4 6/18/4
f 5/19/3 10/20/3 7/21/3
f 7/22/3 13/23/3 8/24/3
f 6/7/3 5/25/3 7/8/3
f 8/10/2 4/26/2 2/11/2
f 3/27/5 20/28/5 4/29/5
f 2/16/4 1/30/4 5/17/4
f 9/31/6 12/32/6 11/33/6
f 9/31/6 10/34/6 12/32/6
f 1/35/4 12/36/4 5/37/4
f 7/38/5 9/39/5 3/40/5
f 13/41/5 15/42/5 16/43/5
f 13/41/5 14/44/5 15/42/5
f 3/45/6 14/46/6 7/47/6
f 4/48/1 15/49/1 3/50/1
f 20/51/1 17/52/1 18/53/1
f 20/51/1 19/54/1 17/52/1
f 4/55/2 18/56/2 2/57/2
f 1/58/6 19/59/6 3/60/6
f 3/1/1 9/61/1 11/2/1
f 8/4/2 13/62/2 16/5/2
f 2/13/4 18/63/4 17/14/4
f 5/19/3 12/64/3 10/20/3
f 7/22/3 14/65/3 13/23/3
f 3/27/5 19/66/5 20/28/5
f 1/35/4 11/67/4 12/36/4
f 7/38/5 10/68/5 9/39/5
f 3/45/6 15/69/6 14/46/6
f 4/48/1 16/70/1 15/49/1
f 4/55/2 20/71/2 18/56/2
f 1/58/6 17/72/6 19/59/6
