# Blender v2.80 (sub 75) OBJ File: 'helper-cube.blend'
# www.blender.org
mtllib helper-cube.mtl
o Cube
v 1.000000 1.000000 -1.000000
v 1.000000 -1.000000 -1.000000
v 1.000000 1.000000 1.000000
v 1.000000 -1.000000 1.000000
v -1.000000 1.000000 -1.000000
v -1.000000 -1.000000 -1.000000
v -1.000000 1.000000 1.000000
v -1.000000 -1.000000 1.000000
v 1.000000 2.413369 1.000000
v -1.000000 2.413369 1.000000
v 1.000000 2.413369 -1.000000
v -1.000000 2.413369 -1.000000
v -1.000000 -1.000000 3.004010
v -1.000000 1.000000 3.004010
v 1.000000 1.000000 3.004010
v 1.000000 -1.000000 3.004010
v 2.935748 1.000000 -1.000000
v 2.935748 -1.000000 -1.000000
v 2.935748 1.000000 1.000000
v 2.935748 -1.000000 1.000000
vt 1.002553 0.750281
vt 0.752597 0.750641
vt 0.752597 0.750641
vt 0.252325 0.501403
vt 0.251965 0.251446
vt 0.251965 0.251446
vt 0.502281 0.501043
vt 0.252684 0.751359
vt 0.501922 0.251087
vt 0.752238 0.500684
vt 0.752597 0.750641
vt 0.502640 0.751000
vt 0.252684 0.751359
vt 0.252325 0.501403
vt 1.002194 0.500325
vt 1.002194 0.500325
vt 0.253043 1.001315
vt 0.502640 0.751000
vt 0.503000 1.000956
vt 0.002728 0.751718
vt 0.002728 0.751718
vt 0.002728 0.751718
vt 0.002368 0.501762
vt 0.252684 0.751359
vt 1.002553 0.750281
vt 0.752238 0.500684
vt 1.002553 0.750281
vt 0.501922 0.251087
vt 1.002553 0.750281
vt 1.002194 0.500325
vt 0.251965 0.251446
vn -1.0000 0.0000 0.0000
vn 0.0000 1.0000 0.0000
vn 1.0000 0.0000 0.0000
vn 0.0000 0.0000 1.0000
vn 0.0000 0.0000 -1.0000
vn 0.0000 -1.0000 0.0000
usemtl Material.001
s off
f 3/1/1 11/2/1 1/3/1
f 8/4/2 16/5/2 4/6/2
f 6/7/3 7/8/3 8/4/3
f 8/4/2 2/9/2 6/7/2
f 2/10/4 17/11/4 1/3/4
f 2/10/4 5/12/4 6/7/4
f 5/12/3 10/13/3 7/8/3
f 7/8/3 13/14/3 8/4/3
f 6/7/3 5/12/3 7/8/3
f 8/4/2 4/6/2 2/9/2
f 3/1/5 20/15/5 4/16/5
f 2/10/4 1/3/4 5/12/4
f 9/17/6 12/18/6 11/19/6
f 9/17/6 10/13/6 12/18/6
f 1/3/4 12/18/4 5/12/4
f 7/8/5 9/20/5 3/21/5
f 13/14/5 15/22/5 16/23/5
f 13/14/5 14/24/5 15/22/5
f 3/21/6 14/24/6 7/8/6
f 4/16/1 15/25/1 3/1/1
f 20/15/1 17/11/1 18/26/1
f 20/15/1 19/27/1 17/11/1
f 4/6/2 18/28/2 2/9/2
f 1/3/6 19/27/6 3/1/6
f 3/1/1 9/29/1 11/2/1
f 8/4/2 13/14/2 16/5/2
f 2/10/4 18/26/4 17/11/4
f 5/12/3 12/18/3 10/13/3
f 7/8/3 14/24/3 13/14/3
f 3/1/5 19/27/5 20/15/5
f 1/3/4 11/2/4 12/18/4
f 7/8/5 10/13/5 9/20/5
f 3/21/6 15/22/6 14/24/6
f 4/16/1 16/30/1 15/25/1
f 4/6/2 20/31/2 18/28/2
f 1/3/6 17/11/6 19/27/6
