# Blender v2.80 (sub 75) OBJ File: 'helper-cube.blend1'
# www.blender.org
mtllib helper-cube.mtl
o Cube
v 1.000000 1.000000 -1.000000
v 1.000000 -1.000000 -1.000000
v 1.000000 1.000000 1.000000
v 1.000000 -1.000000 1.000000
v -1.000000 1.000000 -1.000000
v -1.000000 -1.000000 -1.000000
v -1.000000 1.000000 1.000000
v -1.000000 -1.000000 1.000000
vt 0.251303 0.998515
vt 0.501240 0.748539
vt 0.501260 0.998496
vt 0.251264 0.498602
vt 0.001327 0.748578
vt 0.001307 0.498622
vt 0.501221 0.498582
vt 0.251283 0.748559
vt 0.501201 0.248626
vt 1.001134 0.498543
vt 0.751197 0.748520
vt 0.751177 0.498563
vt 0.251244 0.248645
vt 1.001153 0.748500
vn 0.0000 -1.0000 0.0000
vn 0.0000 0.0000 -1.0000
vn 1.0000 0.0000 0.0000
vn 0.0000 1.0000 0.0000
vn -1.0000 0.0000 0.0000
vn 0.0000 0.0000 1.0000
usemtl Material.001
s off
f 3/1/1 5/2/1 1/3/1
f 8/4/2 3/5/2 4/6/2
f 6/7/3 7/8/3 8/4/3
f 8/4/4 2/9/4 6/7/4
f 4/10/5 1/11/5 2/12/5
f 2/12/6 5/2/6 6/7/6
f 3/1/1 7/8/1 5/2/1
f 8/4/2 7/8/2 3/5/2
f 6/7/3 5/2/3 7/8/3
f 8/4/4 4/13/4 2/9/4
f 4/10/5 3/14/5 1/11/5
f 2/12/6 1/11/6 5/2/6
