g Group0
v 1000.000000 -505.434990 -505.434990
vn 0.577350 -0.577350 -0.577350
v 1000.000000 505.434990 -505.434990
vn 0.333333 0.666667 -0.666667
v -1000.000000 505.434990 -505.434990
vn -0.333333 0.666667 -0.666667
v 510.856986 -505.434990 -505.434990
vn -0.577350 -0.577350 -0.577350
v 510.856986 -255.427986 -505.434990
vn -0.800000 0.000000 -0.600000
v 510.856986 -5.437000 -505.434990
vn -0.235702 -0.235702 -0.942809
v -244.555995 -5.437000 -505.434990
vn 0.000000 -0.707107 -0.707107
v -1000.000000 -5.437000 -505.434990
vn -0.577350 -0.577350 -0.577350
v -1000.000000 249.999002 -505.434990
vn -0.894427 0.000000 -0.447214
v 0.015000 505.434990 -505.434990
vn 0.000000 0.707107 -0.707107
v 1000.000000 -0.008000 -505.434990
vn 0.780869 0.000000 -0.624695
v 755.428016 -505.434990 -505.434990
vn 0.000000 -0.707107 -0.707107
v 1000.000000 505.434990 505.434990
vn 0.577350 0.577350 0.577350
v 510.856986 -0.008000 505.434990
vn -0.577350 -0.577350 0.577350
v 1000.000000 -0.008000 505.434990
vn 0.577350 -0.577350 0.577350
v 755.428016 -0.008000 505.434990
vn 0.000000 -0.707107 0.707107
v 510.856986 252.714008 505.434990
vn -0.600000 0.000000 0.800000
v 510.856986 505.434990 505.434990
vn -0.577350 0.577350 0.577350
v 755.428016 505.434990 505.434990
vn 0.000000 0.707107 0.707107
v 1000.000000 252.714008 505.434990
vn 0.600000 0.000000 0.800000
v 510.856986 -0.008000 1.211000
vn -0.904534 -0.301511 0.301511
v 1000.000000 -505.434990 1.211000
vn 0.577350 -0.577350 0.577350
v 1000.000000 -0.008000 1.211000
vn 0.904534 -0.301511 0.301511
v 510.856986 -505.434990 1.211000
vn -0.816497 -0.408248 0.408248
v 1000.000000 -0.008000 253.315002
vn 0.600000 -0.800000 0.000000
v 755.428016 -505.434990 1.211000
vn 0.000000 -0.800000 0.600000
v 510.856986 -505.434990 -255.427986
vn -0.600000 -0.800000 0.000000
v 510.856986 -505.434990 -5.437000
vn -0.707107 -0.707107 0.000000
v 1000.000000 -505.434990 -252.112001
vn 0.600000 -0.800000 0.000000
v 755.428016 -0.008000 1.211000
vn 0.000000 -0.707107 0.707107
v -1000.000000 -5.437000 -5.437000
vn -0.577350 -0.577350 0.577350
v 510.856986 505.434990 -5.437000
vn -0.617213 0.771517 0.154303
v 1000.000000 505.434990 -0.008000
vn 0.857493 0.514496 0.000000
v -1000.000000 505.434990 -5.437000
vn -0.577350 0.577350 0.577350
v -1000.000000 249.999002 -5.437000
vn -0.800000 0.000000 0.600000
v -1000.000000 -5.437000 -255.427986
vn -0.707107 -0.707107 0.000000
v -1000.000000 505.434990 -255.427986
vn -0.832050 0.554700 0.000000
v 1000.000000 -252.714008 1.211000
vn 0.600000 0.000000 0.800000
v -244.555995 505.434990 -5.437000
vn 0.000000 0.707107 0.707107
v -244.555995 -5.437000 -5.437000
vn 0.000000 -0.800000 0.600000
v 510.856986 -252.714008 1.211000
vn -0.600000 0.000000 0.800000
v 510.856986 -5.437000 -5.437000
vn -0.872872 -0.218218 0.436436
v 510.856986 -0.008000 253.315002
vn -0.600000 -0.800000 0.000000
v 510.856986 -255.427986 -5.437000
vn -1.000000 0.000000 0.000000
v 510.856986 -5.437000 -255.427986
vn -0.707107 -0.707107 0.000000
f 4//4 5//5 12//12 
f 5//5 6//6 11//11 
f 6//6 7//7 10//10 
f 7//7 8//8 9//9 
f 9//9 3//3 7//7 
f 3//3 10//10 7//7 
f 10//10 2//2 6//6 
f 2//2 11//11 6//6 
f 11//11 1//1 12//12 
f 12//12 5//5 11//11 
f 15//15 20//20 16//16 
f 16//16 17//17 14//14 
f 17//17 19//19 18//18 
f 19//19 20//20 13//13 
f 20//20 17//17 16//16 
f 17//17 20//20 19//19 
f 1//1 29//29 12//12 
f 12//12 27//27 4//4 
f 24//24 28//28 26//26 
f 26//26 29//29 22//22 
f 27//27 26//26 28//28 
f 29//29 27//27 12//12 
f 26//26 27//27 29//29 
f 8//8 36//36 9//9 
f 9//9 37//37 3//3 
f 34//34 37//37 35//35 
f 35//35 36//36 31//31 
f 36//36 35//35 9//9 
f 9//9 35//35 37//37 
f 3//3 39//39 10//10 
f 10//10 32//32 2//2 
f 13//13 33//33 19//19 
f 19//19 32//32 18//18 
f 34//34 39//39 37//37 
f 37//37 39//39 3//3 
f 32//32 10//10 39//39 
f 2//2 32//32 33//33 
f 33//33 32//32 19//19 
f 2//2 33//33 11//11 
f 11//11 29//29 1//1 
f 15//15 25//25 20//20 
f 20//20 33//33 13//13 
f 22//22 29//29 38//38 
f 38//38 11//11 23//23 
f 23//23 33//33 25//25 
f 33//33 23//23 11//11 
f 11//11 38//38 29//29 
f 25//25 33//33 20//20 
f 6//6 5//5 45//45 
f 5//5 4//4 27//27 
f 27//27 28//28 44//44 
f 44//44 42//42 45//45 
f 45//45 5//5 44//44 
f 5//5 27//27 44//44 
f 8//8 7//7 36//36 
f 7//7 6//6 45//45 
f 31//31 36//36 40//40 
f 42//42 40//40 45//45 
f 36//36 7//7 40//40 
f 7//7 45//45 40//40 
f 31//31 40//40 35//35 
f 35//35 39//39 34//34 
f 39//39 42//42 32//32 
f 42//42 39//39 40//40 
f 40//40 39//39 35//35 
f 14//14 17//17 43//43 
f 17//17 18//18 32//32 
f 28//28 24//24 44//44 
f 42//42 44//44 41//41 
f 32//32 42//42 21//21 
f 24//24 41//41 44//44 
f 41//41 21//21 42//42 
f 21//21 43//43 32//32 
f 43//43 17//17 32//32 
f 22//22 38//38 26//26 
f 26//26 41//41 24//24 
f 23//23 30//30 38//38 
f 41//41 30//30 21//21 
f 38//38 41//41 26//26 
f 30//30 41//41 38//38 
f 15//15 16//16 25//25 
f 16//16 14//14 43//43 
f 23//23 25//25 30//30 
f 43//43 21//21 30//30 
f 25//25 16//16 43//43 
f 30//30 25//25 43//43 
